<svg width="255" height="182" xmlns="http://www.w3.org/2000/svg" xmlns:xlink="http://www.w3.org/1999/xlink"><svg width="92" height="54" id="HD" xmlns="http://www.w3.org/2000/svg"><defs><style>.acls-2{isolation:isolate;font-size:49.07px;fill:#fff;font-family:MyriadPro-Regular,Myriad Pro}</style></defs><g id="aLayer_2" data-name="Layer 2"><g id="aLayer_2-2" data-name="Layer 2"><g id="ag14"><g id="atext22" style="isolation:isolate"><text class="acls-2" transform="translate(0 41)">М</text><text class="acls-2" transform="translate(37 41)">С</text><text class="acls-2" transform="translate(66 42)">У</text></g></g></g></g></svg><svg id="comment" data-name="Layer 1" width="64" height="64" y="54" xmlns="http://www.w3.org/2000/svg"><path d="M.72.08A.67.67 0 000 .8v46.48a.72.72 0 00.72.72H48l16 16V.72a.67.67 0 00-.72-.72H.8z" fill="#2f5572"/></svg><svg version="1.1" id="eye" x="236.01" y="84.01" xml:space="preserve" width="16" height="16" xmlns="http://www.w3.org/2000/svg"><path d="M8 .5C15.5.5 18 8 18 8s-2.5 7.5-10 7.5S-2 8-2 8 .5.5 8 .5zM8 3C5.2 3 3.3 4.4 2.1 5.9c-.6.7-1.1 1.5-1.4 2v.2c.3.5.8 1.3 1.4 2C3.3 11.6 5.2 13 8 13c2.8 0 4.7-1.4 5.9-2.9.6-.8 1.1-1.5 1.4-2.1v-.2c-.3-.6-.7-1.3-1.4-2.1C12.7 4.4 10.8 3 8 3zm0 1.3c.4 0 .8.1 1.1.2-.6.2-1.1.9-1.1 1.6C8 7.2 8.8 8 9.9 8c.8 0 1.4-.5 1.7-1.1.1.3.2.7.2 1.1 0 2.1-1.7 3.8-3.8 3.8S4.3 10.1 4.3 8 5.9 4.3 8 4.3z" fill="#fff"/></svg><svg version="1.1" id="eye-slash" x="236" y="108.11" xml:space="preserve" width="16" height="16" xmlns="http://www.w3.org/2000/svg"><path d="M16.4-.4c.5.5.5 1.3 0 1.8l-15 15c-.5.5-1.3.5-1.8 0s-.5-1.3 0-1.8l1.7-1.7C-1.1 10.8-2 8-2 8-1.8 7.5.8.5 8 .5c1.8 0 3.4.4 4.6 1.1l2-2c.5-.5 1.3-.5 1.8 0zm0 5.4C17.5 6.6 18 8 18 8s-2.5 7.5-10 7.5c-.7 0-1.4-.1-2-.2L8.3 13c2.6-.1 4.4-1.4 5.6-2.8.6-.8 1.1-1.5 1.4-2.1v-.2c-.2-.3-.4-.8-.7-1.2L16.4 5zM8 3C5.2 3 3.3 4.4 2.1 5.9c-.6.7-1.1 1.5-1.4 2v.2c.3.5.8 1.3 1.4 2 .3.3.6.7 1 1l1.5-1.5c-.2-.5-.3-1-.3-1.6 0-2.1 1.7-3.7 3.8-3.7.6 0 1.1.1 1.6.4l1.1-1.1C9.9 3.2 9 3 8 3z" fill-rule="evenodd" clip-rule="evenodd" fill="#fff"/></svg><svg width="21.23" height="42.01" id="facebook" x="64" y="54" xmlns="http://www.w3.org/2000/svg"><path fill="#FFF" d="M21.23.31V7H17.4a3.55 3.55 0 00-2.85.91 4.26 4.26 0 00-.74 2.72v4.77H21l-1 7.47h-6.19V42H6.27V22.85H0v-7.47h6.27V9.85q0-4.69 2.55-7.28A9 9 0 0115.63 0a39.57 39.57 0 015.6.31z"/></svg><svg id="fire" data-name="Layer 1" width="56" height="64" x="92" xmlns="http://www.w3.org/2000/svg"><path d="M16 0C24 16 0 24 0 40s16 24 16 24C8.16 48.16 32 40 32 24S16 0 16 0zm24 24c8 16-16 24-16 40h24c3.2 0 8-4 8-16 0-16-16-24-16-24z" fill="#d4953d"/></svg><svg id="globe" data-name="Layer 1" width="64" height="64" x="148" xmlns="http://www.w3.org/2000/svg"><path d="M32 0a32 32 0 1032 32A32 32 0 0032 0zm0 8a23.75 23.75 0 017.52 1.52c-1.68 1.6-3.6 3-3.28 4.48s5.52 1 5.52 4c0 2.16-3.36 2.8-1 5.28 2.8 2.8-5.12 7.84-5.28 11.52-.24 6.64 6.72 7.76 12.24 7.76 3.36 0 4.24 1.6 4 3.52a24.07 24.07 0 01-19.76 10 22.94 22.94 0 01-8.48-1.76c1.76-3.52-2.24-10.48-6-12.72-1.84-1.84-5.76-1.12-8-2a23.49 23.49 0 01-1.52-6.72 1.42 1.42 0 011.28-.72c1.52 0 3.6 3 4.72 2.72 1.4-.32-5.96-10.48-2.52-12.48 1.6-1 4.8 3.12 3.76-1.28-1-4.08 2.88-2.24 5.28-3.28 2.08-.88 3.6-3.28 1-4.72a8.55 8.55 0 01-1.76-1.52A23.75 23.75 0 0132 8.08V8zm18.48 8.72A26.46 26.46 0 0154 22.48v.24a11.78 11.78 0 01-1.76 1.76C50 26.72 49.68 22.8 48.72 22c-1-1-4.8.16-5.28-1-.56-1.48 4-3.4 7.04-4.28z" fill="#d4953f"/></svg><svg width="42.01" height="42.01" id="instagram" x="212" xmlns="http://www.w3.org/2000/svg"><path fill="#FFF" d="M37.25 35.49V17.77h-3.69a11.77 11.77 0 01.57 3.58 12.12 12.12 0 01-1.75 6.36 12.76 12.76 0 01-4.76 4.59 13.13 13.13 0 01-6.56 1.7 12.78 12.78 0 01-9.19-3.71 12 12 0 01-3.83-9 11.77 11.77 0 01.49-3.56H4.68v17.76a1.63 1.63 0 001.6 1.67h29.3a1.63 1.63 0 001.17-.47 1.59 1.59 0 00.5-1.2zm-7.77-14.57A7.75 7.75 0 0027 15.14a8.28 8.28 0 00-6-2.4 8.25 8.25 0 00-5.91 2.39 7.75 7.75 0 00-2.47 5.78 7.75 7.75 0 002.47 5.79A8.25 8.25 0 0021 29.1a8.28 8.28 0 006-2.4 7.75 7.75 0 002.48-5.78zm7.76-9.84V6.56a1.84 1.84 0 00-.54-1.31 1.8 1.8 0 00-1.31-.56h-4.78a1.8 1.8 0 00-1.31.56 1.84 1.84 0 00-.54 1.31v4.52A1.87 1.87 0 0030.6 13h4.8a1.87 1.87 0 001.85-1.89zM42 5.39v31.23A5.41 5.41 0 0136.62 42H5.39a5.19 5.19 0 01-3.8-1.59A5.19 5.19 0 010 36.62V5.39a5.19 5.19 0 011.59-3.8A5.19 5.19 0 015.39 0h31.23a5.19 5.19 0 013.8 1.59A5.19 5.19 0 0142 5.39z"/></svg><svg id="key" data-name="Capa 1" width="24.01" height="24.1" x="212" y="84.01" xmlns="http://www.w3.org/2000/svg"><defs><style>.icls-1{fill:#fff}</style></defs><path class="icls-1" d="M19.65 24a.73.73 0 01-.52-.21l-.19-.18h-1.71A1.18 1.18 0 0116 22.5v-.91h-.87A1.15 1.15 0 0114 20.45v-.91h-.87A1.14 1.14 0 0112 18.41l-.06-1.82c-.15-.16-.43-.42-.72-.7a2 2 0 01-1 .26 1.91 1.91 0 01-1.36-.55l-.12-.13a6.61 6.61 0 01-.89 0 7.71 7.71 0 01-5.47-2.28 7.76 7.76 0 0111-11A7.77 7.77 0 0115.48 9a2.07 2.07 0 01.32 1 2 2 0 01-.19.91l8.24 8.28a.75.75 0 01.21.51l.06 2.08a2 2 0 01-1.9 2.05l-2.43.07zm-.42-1.9a.78.78 0 01.53.21l.18.19 2.11-.07a.47.47 0 00.45-.43l-.05-1.78-8.35-8.46a.68.68 0 01-.21-.42v-.19a.7.7 0 01.19-.62.53.53 0 00.13-.36.47.47 0 00-.15-.35.74.74 0 01-.2-.69A6.24 6.24 0 003.37 3.36a6.28 6.28 0 000 8.86 6.13 6.13 0 004.4 1.84A5.93 5.93 0 009 14a.77.77 0 01.81.39c0 .08 0 .31.39.37a.39.39 0 00.34-.1l.1-.11a.74.74 0 01.52-.25.68.68 0 01.54.19s.38.33.74.67c.8.75 1 .92 1 1.28v1.74h1.27a.69.69 0 01.53.2.77.77 0 01.24.53v1.33h1.22a.69.69 0 01.53.2.77.77 0 01.24.53v1.33l1.67-.05z" transform="translate(-.11 .07)"/><path class="icls-1" d="M6.37 9a2.63 2.63 0 111.86-4.5A2.64 2.64 0 016.37 9zm0-3.77a1.07 1.07 0 00-.79.33 1.13 1.13 0 000 1.6 1.11 1.11 0 00.79.33 1.14 1.14 0 00.8-1.94 1.09 1.09 0 00-.8-.32zm14.01 16a.75.75 0 01-.53-.22l-6.65-6.69a.75.75 0 011.06-1.06L20.91 20a.75.75 0 01-.53 1.28z" transform="translate(-.11 .07)"/></svg><svg id="mail" data-name="Layer 1" width="64" height="48" x="148" y="64" xmlns="http://www.w3.org/2000/svg"><path d="M0 0v8l32 16L64 8V0H0zm0 16v32h64V16L32 32z" fill="#2f5572"/></svg><svg id="rain" data-name="Layer 1" width="64" height="64" y="118" xmlns="http://www.w3.org/2000/svg"><path d="M36 0a20.42 20.42 0 00-20 16A16 16 0 000 32a15.4 15.4 0 004.27 10.72A11.88 11.88 0 0112 40a10.51 10.51 0 014.47 1A12 12 0 0128 32a12.06 12.06 0 0111.51 9A11.84 11.84 0 0144 40a11.94 11.94 0 0111 7.52A12.07 12.07 0 0064 36c0-5.2-3.36-10.32-8-12v-4A20 20 0 0036 0zm-9.27 40A4 4 0 0024 44v16a4 4 0 108 0V44a4 4 0 00-4.71-4h-.56zm-16 8A4 4 0 008 52v8a4 4 0 108 0v-8a4 4 0 00-4.71-4h-.54zm32 0A4 4 0 0040 52v8a4 4 0 108 0v-8a4 4 0 00-4.71-4h-.58z" transform="translate(-.04)" fill="#d4953f"/></svg><svg id="star" data-name="Layer 1" width="64" height="64" x="64" y="118" xmlns="http://www.w3.org/2000/svg"><path d="M32 0l-8 24H0l20 16-8 24 20-16 20 16-8-24 20-16H40z" fill="#d4953f"/></svg><svg width="51.78" height="42.06" id="twitter" x="92" y="64" xmlns="http://www.w3.org/2000/svg"><path fill="#FFF" d="M51.78 5a22.23 22.23 0 01-5.32 5.52v1.38a30.15 30.15 0 01-1.25 8.53 30.81 30.81 0 01-3.76 8.13 32.1 32.1 0 01-6.06 6.92 27 27 0 01-8.48 4.8 31 31 0 01-10.62 1.8A29.47 29.47 0 010 37.29a22.71 22.71 0 002.56.13 20.78 20.78 0 0013.17-4.53 10.63 10.63 0 01-9.92-7.36 13.45 13.45 0 002 .16 11 11 0 002.79-.36 10.44 10.44 0 01-6.09-3.67 10.25 10.25 0 01-2.41-6.75v-.13a10.52 10.52 0 004.8 1.34 10.6 10.6 0 01-3.45-3.78 10.34 10.34 0 01-1.28-5.07 10.4 10.4 0 011.45-5.33 30.08 30.08 0 009.71 7.83A29.57 29.57 0 0025.53 13a11.79 11.79 0 01-.26-2.43 10.23 10.23 0 013-7.48 10.64 10.64 0 0115 0l.21.22A20.81 20.81 0 0050.33.8a10.3 10.3 0 01-4.67 5.85A21.14 21.14 0 0051.78 5z"/></svg><svg width="24" height="24" id="user" x="212" y="108.11" xmlns="http://www.w3.org/2000/svg"><g id="nLayer_2" data-name="Layer 2"><path d="M10.5 18.3v-3.9H0V9.6h10.5V5.7l7.87 6.3-7.87 6.3M7.5 0H21a2.74 2.74 0 013 2.38V21.6c0 1.32-1.33 2.39-3 2.4H7.5a2.75 2.75 0 01-3-2.4v-4.8h3v4.8H21V2.4H7.5v4.8h-3V2.4a2.75 2.75 0 013-2.4z" id="nLayer_1-2" data-name="Layer 1" fill="#fff"/></g></svg><svg id="wifi" data-name="Layer 1" width="60" height="64" x="128" y="118" xmlns="http://www.w3.org/2000/svg"><path d="M29.88 0A55.39 55.39 0 000 8.72l4.22 6.48a47.32 47.32 0 0125.66-7.28 47.31 47.31 0 0125.9 7.28L60 8.72A55.53 55.53 0 0029.88 0zm0 24a31.08 31.08 0 00-17 5l4.22 6.72A23.09 23.09 0 0129.8 32a24.17 24.17 0 0113 3.76L47 29a32.37 32.37 0 00-17.2-5h.07zm0 24a8 8 0 108 8 8 8 0 00-8-8z" fill="#d4953e"/></svg><svg width="34.75" height="42" id="youtube" x="212" y="42.01" xmlns="http://www.w3.org/2000/svg"><path fill="#FFF" d="M22.13 29.15v5q0 1.57-.91 1.57a1.5 1.5 0 01-1.06-.52v-7.11a1.5 1.5 0 011.06-.54q.91 0 .91 1.6zm7.92 0v1.08h-2.1v-1.06q0-1.59 1.06-1.59t1 1.59zM7.42 24h2.5v-2.14h-7.3v2.2h2.46V37.4h2.34V24zm6.75 13.4h2.09V25.82h-2.09v8.86a1.86 1.86 0 01-1.31 1 .48.48 0 01-.49-.47 6.52 6.52 0 010-.82v-8.57h-2.14V35a5.79 5.79 0 00.19 1.71 1.26 1.26 0 001.36.87 3.43 3.43 0 002.39-1.43v1.25zm10.05-3.47v-4.6A8.33 8.33 0 0024 27a1.63 1.63 0 00-1.67-1.31A2.82 2.82 0 0020.16 27v-5.1h-2.08v15.5h2.09v-1.13a2.91 2.91 0 002.18 1.31A1.62 1.62 0 0024 36.27a8.61 8.61 0 00.22-2.35zm7.92-.24v-.3H30a11.6 11.6 0 010 1.43.9.9 0 01-.94.85q-1.08 0-1.08-1.61V32h4.19v-2.41a4.65 4.65 0 00-.66-2.72 3.2 3.2 0 00-5 0 4.52 4.52 0 00-.66 2.72v4.05a4.4 4.4 0 00.66 2.72 3 3 0 002.49 1.2 2.9 2.9 0 003-2.51 10.31 10.31 0 00.09-1.36zM17.89 12.3V7.38q0-1.61-1-1.61t-1 1.61v4.92q0 1.64 1 1.64t1-1.64zm16.85 17.6a40.6 40.6 0 01-.61 8.2 4.45 4.45 0 01-1.36 2.32 4.1 4.1 0 01-2.39 1.08 125.31 125.31 0 01-13 .49 125.31 125.31 0 01-13-.49A4.15 4.15 0 012 40.42 4.28 4.28 0 01.63 38.1 39.76 39.76 0 010 29.9a40.6 40.6 0 01.61-8.2A4.45 4.45 0 012 19.37a4.25 4.25 0 012.41-1.1q4.29-.47 13-.47t13 .47a4.4 4.4 0 013.75 3.42 39.76 39.76 0 01.58 8.21zM11.35 0h2.39l-2.83 9.35v6.35H8.57V9.35a39.68 39.68 0 00-1.43-5Q6.27 2 5.61 0H8.1l1.67 6.16zM20 7.8v4.1a4.59 4.59 0 01-.66 2.76 2.88 2.88 0 01-2.49 1.19 2.9 2.9 0 01-2.46-1.19 4.68 4.68 0 01-.66-2.76V7.8a4.59 4.59 0 01.66-2.74 2.9 2.9 0 012.46-1.19 2.88 2.88 0 012.49 1.19A4.59 4.59 0 0120 7.8zM27.87 4v11.7h-2.13v-1.27a3.37 3.37 0 01-2.41 1.45A1.31 1.31 0 0122 15a6 6 0 01-.19-1.76V4h2.13v8.6a6.14 6.14 0 000 .82.49.49 0 00.47.52 1.87 1.87 0 001.31-1V4h2.16z"/></svg></svg>